PathFileType	4	(X/Y/Z)	C:\Users\Basilio\Documents\Thesis Gigler\squatting_fais\c3dfiles\019\SLS_front_pre3\markers_experimental.trc
DataRate	CameraRate	NumFrames	NumMarkers	Units	OrigDataRate	OrigDataStartFrame	OrigNumFrames
200.000000	200.000000	4	59	mm	200.000000	0	1316
Frame#	Time	LBHD			RBHD			C7			T10			LSHO			LUUPA			LMUPA			LDUPA			LLEP			LMEP			LRAD			LUL			LRFIN			RSHO			RUPA1			RMUPA			RDUPA			RLEP			RMEP			RRAD			RUL			RUFIN			LASI			RASI			USACR			LSACR			RSACR			LTHI1			LTHI2			LTHI3			LTHI4			LLFC			LTIB1			LTIB2			LTIB3			LTIB4			LLMAL			LMMAL			LHEE			LMT1			LMT2			LMT5			RTHI			RTHI2			RTHI3			RTHI4			RLFC			RTIB1			RTIB2			RTIB3			RTIB4			RLMAL			RMMAL			RHEE			RMT1			RMT2			RMT5			FHD			CLAV			
		X1	Y1	Z1	X2	Y2	Z2	X3	Y3	Z3	X4	Y4	Z4	X5	Y5	Z5	X6	Y6	Z6	X7	Y7	Z7	X8	Y8	Z8	X9	Y9	Z9	X10	Y10	Z10	X11	Y11	Z11	X12	Y12	Z12	X13	Y13	Z13	X14	Y14	Z14	X15	Y15	Z15	X16	Y16	Z16	X17	Y17	Z17	X18	Y18	Z18	X19	Y19	Z19	X20	Y20	Z20	X21	Y21	Z21	X22	Y22	Z22	X23	Y23	Z23	X24	Y24	Z24	X25	Y25	Z25	X26	Y26	Z26	X27	Y27	Z27	X28	Y28	Z28	X29	Y29	Z29	X30	Y30	Z30	X31	Y31	Z31	X32	Y32	Z32	X33	Y33	Z33	X34	Y34	Z34	X35	Y35	Z35	X36	Y36	Z36	X37	Y37	Z37	X38	Y38	Z38	X39	Y39	Z39	X40	Y40	Z40	X41	Y41	Z41	X42	Y42	Z42	X43	Y43	Z43	X44	Y44	Z44	X45	Y45	Z45	X46	Y46	Z46	X47	Y47	Z47	X48	Y48	Z48	X49	Y49	Z49	X50	Y50	Z50	X51	Y51	Z51	X52	Y52	Z52	X53	Y53	Z53	X54	Y54	Z54	X55	Y55	Z55	X56	Y56	Z56	X57	Y57	Z57	X58	Y58	Z58	X59	Y59	Z59	

1	0	-460.9633789062501	1686.11474609375	-864.0888671875002	-457.792205810547	1682.662231445313	-724.0173339843751	-469.0327453613282	1508.876831054688	-784.1087036132815	-476.0498657226564	1215.860107421875	-774.9497680664065	-400.0674743652345	1519.903564453125	-926.2575683593752	-272.3612976074219	1510.052001953125	-981.2792968750002	-248.6458129882813	1505.21337890625	-939.8948974609377	-206.5779113769532	1515.823486328125	-982.536804199219	-132.5345611572266	1498.032104492188	-1016.371032714844	-126.3215713500977	1439.241821289063	-1005.036010742188	115.275619506836	1527.227416992188	-924.3504028320315	111.3677749633789	1532.439086914063	-992.0815429687502	186.0331726074219	1548.008666992188	-921.9672851562502	-380.7935791015626	1517.716918945313	-664.9414062500001	-252.9548034667969	1466.60107421875	-561.3587646484376	-229.2537536621094	1493.380249023438	-594.2443847656251	-184.6744232177735	1468.44189453125	-559.7366333007814	-109.1468734741211	1475.247436523438	-570.8481445312501	-112.3979797363282	1415.595947265625	-584.7322387695314	125.1920013427735	1514.079467773438	-660.3715209960939	133.974853515625	1515.837890625	-593.5952758789064	208.107894897461	1535.265625	-658.6030273437501	-308.7017211914063	1024.880249023438	-903.560485839844	-291.1775512695313	1011.996948242188	-691.9076538085939	-465.0408020019532	1083.902221679688	-777.8150024414065	-470.4748840332032	1052.09033203125	-806.781188964844	-463.9092712402345	1051.137451171875	-749.4868774414064	-376.3498840332032	771.864440917969	-991.119079589844	-340.6729431152344	693.9810791015626	-995.1717529296877	-294.9906005859376	698.5819091796876	-980.918640136719	-368.0595092773438	640.0959472656251	-985.663024902344	-372.4561157226563	543.0073852539064	-979.3305664062502	-331.0533447265626	400.0665893554689	-960.0548095703127	-388.0704040527345	364.3752136230469	-1016.80224609375	-351.3532409667969	357.3048095703126	-994.2644042968752	-356.5228576660157	274.2145996093751	-968.008483886719	-432.2099914550782	153.6704559326172	-1003.435852050781	-411.3353881835939	150.7454071044922	-924.4729614257815	-501.753387451172	126.516845703125	-956.8648681640627	-286.9102478027344	67.82003784179689	-945.5867919921877	-290.1536560058594	70.34759521484376	-988.1755371093752	-337.6807250976563	59.79833221435548	-1039.864135742188	-333.1317138671876	811.299987792969	-616.7034301757814	-294.9010925292969	761.3317871093751	-629.5286865234376	-269.9133911132813	763.3760986328126	-651.8456420898439	-321.9528503417969	679.7213134765626	-627.7464599609376	-359.9652099609376	519.2651977539064	-661.9570312500001	-314.4471740722657	341.2168579101563	-722.7908935546876	-364.4336853027344	257.8599243164063	-667.7078247070314	-331.3454589843751	258.1970520019532	-700.6522827148439	-338.5725402832032	216.8868408203126	-742.2393798828126	-394.687469482422	128.668930053711	-700.8203735351564	-379.9821166992188	135.8995666503907	-775.4719848632815	-456.4128723144532	106.2783737182617	-749.9997558593751	-258.1002807617188	56.95553207397462	-775.1341552734377	-249.6946258544922	55.01736450195314	-733.1397705078126	-292.9265747070313	50.41551208496095	-674.6283569335939	nan	nan	nan	nan	nan	nan	
2	0.005	-460.7017211914064	1686.120239257813	-864.246765136719	-457.5988769531251	1682.627563476563	-724.1687622070314	-468.8371582031251	1508.852294921875	-784.2188720703127	-475.931610107422	1215.917724609375	-775.0406494140627	-399.8214111328126	1519.819702148438	-926.2172851562502	-272.1508789062501	1509.912963867188	-981.3450317382815	-248.3762969970704	1505.099487304688	-939.9710693359377	-206.3925933837891	1515.663330078125	-982.622741699219	-132.3577270507813	1497.827514648438	-1016.427673339844	-126.1317291259766	1439.022216796875	-1005.050598144531	115.4541625976563	1526.889892578125	-924.3741455078127	111.5267181396485	1532.095947265625	-992.1267700195315	186.2281036376953	1547.681640625	-921.960876464844	-380.6181640625001	1517.6875	-665.0896606445314	-252.8027648925782	1466.526245117188	-561.4764404296876	-229.1028747558594	1493.329345703125	-594.3149414062501	-183.5841674804688	1469.708251953125	-560.0002441406251	-109.0878219604492	1475.163696289063	-570.8749389648439	-112.2719955444336	1415.426513671875	-584.7829589843751	125.3154525756836	1513.798583984375	-660.4832153320314	134.211669921875	1515.639282226563	-593.6181640625001	211.5897979736329	1534.24365234375	-659.1753540039064	-308.5652465820313	1024.8876953125	-903.595886230469	-291.0021667480469	1011.964416503906	-691.9057006835939	-464.8632812500001	1083.873046875	-777.8867797851565	-470.1531066894532	1051.984008789063	-806.8876953125002	-463.762176513672	1051.146362304688	-749.5117187500001	-376.1962890625001	771.8974609375002	-991.1339111328127	-340.5415039062501	693.9575195312501	-995.1617431640627	-294.9314270019532	698.5775756835939	-980.9421997070315	-367.9616088867188	640.1142578125001	-985.7312622070315	-372.4066467285157	543.0120239257814	-979.3252563476565	-330.0463867187501	400.285614013672	-960.9375000000002	-388.0752563476564	364.3621520996094	-1016.8291015625	-351.3247680664063	357.3079833984376	-994.2755126953127	-356.4777526855469	274.2240295410157	-968.057556152344	-432.2154541015626	153.7256469726563	-1003.434326171875	-411.3324584960939	150.7516479492188	-924.475280761719	-501.7856445312501	126.5411682128907	-956.841003417969	-286.8852539062501	67.78633880615236	-945.6112060546877	-290.1752319335938	70.3014373779297	-988.2524414062502	-337.7272033691407	59.80849075317384	-1039.881103515625	-332.9937438964844	811.353942871094	-616.7859497070314	-294.8174743652344	761.3219604492189	-629.5714111328126	-269.7593383789063	763.3548583984376	-651.8827514648439	-321.8446655273438	679.6989746093751	-627.7435913085939	-359.9184265136719	519.3038940429689	-661.9852294921876	-314.4602661132813	341.1779785156251	-722.7700195312501	-364.4089050292969	257.8877258300782	-667.7076416015626	-331.3161315917969	258.1732177734376	-700.6270751953126	-338.5917053222657	216.8279724121094	-742.1737670898439	-394.6755371093751	128.6768798828125	-700.8252563476564	-380.0141296386719	135.9200744628907	-775.4694824218752	-456.3352661132814	106.2380981445313	-749.9976196289064	-258.1139221191407	56.9285011291504	-775.1022949218752	-249.6326141357422	54.98093032836915	-732.9445190429689	-292.9265747070313	50.41551971435548	-674.6283569335939	nan	nan	nan	nan	nan	nan	
3	0.01	-460.4781188964845	1686.069580078125	-864.4281005859377	-457.4465332031251	1682.598022460938	-724.3272705078126	-468.6781616210939	1508.802368164063	-784.3577880859377	-475.7114257812501	1215.879272460938	-775.1026611328127	-399.6180419921876	1519.776733398438	-926.2928466796877	-272.1593322753907	1509.732055664063	-982.026062011719	-248.2310943603516	1504.949829101563	-940.0962524414065	-206.2139587402344	1515.472778320313	-982.712585449219	-132.4300994873047	1497.35791015625	-1016.769775390625	-125.9661941528321	1438.80126953125	-1005.107727050781	115.505111694336	1526.538940429688	-924.4157714843752	111.7085647583008	1531.779418945313	-992.0996704101565	186.3632965087891	1547.329833984375	-921.9514160156252	-380.5093078613282	1517.698852539063	-665.2174682617189	-252.7149353027344	1466.462768554688	-561.5537719726564	-228.9657287597657	1493.259765625	-594.4067382812501	-183.6297149658203	1469.418212890625	-560.0563964843751	-108.9207000732422	1474.983032226563	-571.0056762695314	-112.2061004638672	1415.255859375	-584.8876342773439	125.3613739013672	1513.462768554688	-660.5380249023439	134.2779846191407	1515.177978515625	-593.7294311523439	211.7369995117188	1534.098754882813	-659.2592163085939	-308.4411010742188	1024.881469726563	-903.647399902344	-290.9381408691407	1011.974304199219	-691.9869995117189	-464.7242736816407	1083.861572265625	-777.9342041015627	-469.9700622558595	1051.924438476563	-806.9197998046877	-463.5886230468751	1051.173706054688	-749.5723876953126	-376.0943603515626	771.8758544921877	-991.169860839844	-340.4640197753907	693.9363403320314	-995.2141113281252	-294.8213195800782	698.5470581054689	-980.9852294921877	-367.8769226074219	640.1296386718751	-985.7261962890627	-372.3360595703126	543.0109863281251	-979.3524169921877	-330.1176757812501	400.1438903808595	-960.9135742187502	-388.0648193359376	364.3566894531251	-1016.833435058594	-351.3461914062501	357.2719726562501	-994.2861328125002	-356.4743957519532	274.2257995605469	-968.0931396484377	-432.2817993164064	153.6998901367188	-1003.418701171875	-411.3330078125001	150.748291015625	-924.4718017578127	-501.753387451172	126.516845703125	-956.8648681640627	-286.9065856933594	67.79642486572267	-945.597595214844	-290.1244201660157	70.34490966796876	-988.2686767578127	-337.6777648925782	59.76636123657228	-1039.916748046875	-332.9366149902344	811.2754516601565	-616.8550415039064	-294.0943298339844	759.1754760742189	-628.7160034179689	-269.4977722167969	763.3959960937501	-651.7895507812501	-321.7565612792969	679.7128906250001	-627.7847290039064	-359.8660278320313	519.1950683593751	-661.9790039062501	-314.4110412597657	341.1976928710938	-722.7870483398439	-364.4089050292969	257.8877258300782	-667.7076416015626	-331.2921752929688	258.2049255371094	-700.6192016601564	-338.5194702148438	216.8318634033204	-742.2030639648439	-394.6922302246095	128.6789855957032	-700.8300170898439	-380.0585632324219	135.8940887451172	-775.519470214844	-456.3033447265626	106.2910232543946	-749.9957885742189	-257.8515319824219	56.63741302490236	-775.0299072265627	-249.5700073242188	54.97239685058595	-733.0767822265626	-292.9200744628907	50.41270828247072	-674.5887451171876	nan	nan	nan	nan	nan	nan	
4	0.015	-460.2400207519532	1686.081665039063	-864.5827636718752	-457.2467041015626	1682.640991210938	-724.4956665039064	-468.5849609375001	1508.853515625	-784.4443359375002	-475.6512756347657	1215.91552734375	-775.1713867187502	-399.4782104492189	1519.763061523438	-926.420104980469	-271.9777832031251	1509.574096679688	-982.1150512695315	-248.0747985839844	1504.833129882813	-940.159851074219	-206.0403747558594	1515.322387695313	-982.791931152344	-132.2520141601563	1497.1640625	-1016.852478027344	-125.8709564208985	1438.585571289063	-1005.192016601563	115.6725082397461	1526.237060546875	-924.4346923828127	111.7155380249024	1531.467407226563	-992.0330810546877	186.5137939453125	1547.052001953125	-921.995300292969	-380.2789306640626	1517.667846679688	-665.2885742187501	-252.5709533691407	1466.438110351563	-561.6639404296876	-228.8182983398438	1493.214111328125	-594.4826049804689	-183.3433532714844	1469.572998046875	-560.1956787109376	-108.8555603027344	1474.881469726563	-571.0410766601564	-112.0848617553711	1415.20458984375	-584.9526977539064	125.5084075927735	1513.194091796875	-660.5960083007814	134.4354705810547	1515.050659179688	-593.6978149414064	211.6262207031251	1533.92236328125	-659.3162231445314	-308.2705383300782	1024.890625	-903.6824951171877	-290.7615356445313	1011.979064941406	-691.9930419921876	-464.611785888672	1083.889770507813	-778.019470214844	-470.0943603515626	1052.089599609375	-806.9335937500002	-463.4793701171876	1051.180541992188	-749.6320800781251	-375.9425354003907	771.8594360351565	-991.2102661132815	-340.3608398437501	693.9434204101564	-995.247497558594	-294.6904602050782	698.5523071289064	-981.0301513671877	-367.7970275878907	640.1121215820314	-985.7442626953127	-372.2857360839844	543.0205688476564	-979.4004516601565	-330.0510864257813	400.1553039550782	-960.9436645507815	-388.0598449707032	364.3571166992188	-1016.837707519531	-351.3458251953126	357.2717895507813	-994.2859497070315	-356.4681396484376	274.1874694824219	-968.0783691406252	-432.2453918457032	153.7269439697266	-1003.408813476563	-411.3294067382814	150.7569122314453	-924.476013183594	-501.7914428710939	126.497802734375	-956.8419189453127	-286.9097290039063	67.81646728515626	-945.585876464844	-290.1194763183594	70.30015563964845	-988.2071533203127	-337.7452392578126	59.797176361084	-1039.901123046875	-336.2335205078126	813.967224121094	-614.9594726562501	-293.9538879394532	756.2505493164064	-625.5579833984376	-267.4189453125001	757.8955078125001	-649.0115966796876	-321.7161254882813	679.7290649414064	-627.8428344726564	-359.8034667968751	519.3168334960939	-662.0216064453126	-314.3935852050782	341.1684265136719	-722.8243408203126	-364.4089050292969	257.8877258300782	-667.7076416015626	-331.2708129882813	258.1825561523438	-700.6776123046876	-338.5311889648438	216.8450622558594	-742.1873168945314	-394.676971435547	128.6938934326172	-700.7993774414064	-380.0752258300782	135.9373931884766	-775.5501098632815	-456.4656982421876	106.3231277465821	-749.9647827148439	-257.8521423339844	56.67543411254884	-775.0744628906252	-249.6176757812501	54.96779632568361	-733.1575317382814	-292.9744873046876	50.37005996704103	-674.5546875000001	nan	nan	nan	nan	nan	nan	
